<mxfile host="app.diagrams.net" agent="Mozilla/5.0 (Windows NT 10.0; Win64; x64) AppleWebKit/537.36 (KHTML, like Gecko) Chrome/133.0.0.0 Safari/537.36" version="26.0.15">
  <diagram name="Page-1" id="oQL69W3khTOctAERyfO5">
    <mxGraphModel dx="1221" dy="599" grid="1" gridSize="10" guides="1" tooltips="1" connect="1" arrows="1" fold="1" page="1" pageScale="1" pageWidth="850" pageHeight="1100" math="0" shadow="0">
      <root>
        <mxCell id="0" />
        <mxCell id="1" parent="0" />
        <mxCell id="tFMe2BVRG-rV2HACEoZ4-1" value="&lt;h2 data-start=&quot;173&quot; data-end=&quot;219&quot;&gt;&lt;strong data-start=&quot;176&quot; data-end=&quot;219&quot;&gt;&lt;font style=&quot;font-size: 20px;&quot;&gt;📌 1. مكونات النظام (System Components)&lt;/font&gt;&lt;/strong&gt;&lt;/h2&gt;&lt;ol data-start=&quot;220&quot; data-end=&quot;945&quot;&gt;&lt;li data-start=&quot;220&quot; data-end=&quot;368&quot;&gt;&lt;p data-start=&quot;223&quot; data-end=&quot;248&quot;&gt;&lt;font style=&quot;font-size: 20px;&quot;&gt;&lt;strong data-start=&quot;223&quot; data-end=&quot;245&quot;&gt;المستخدمين (Users)&lt;/strong&gt;:&lt;/font&gt;&lt;/p&gt;&lt;ul data-start=&quot;252&quot; data-end=&quot;368&quot;&gt;&lt;li data-start=&quot;252&quot; data-end=&quot;309&quot;&gt;&lt;font style=&quot;font-size: 20px;&quot;&gt;&lt;strong data-start=&quot;254&quot; data-end=&quot;265&quot;&gt;المحاسب&lt;/strong&gt;: المسؤول عن تسجيل اليوميات وحساب الرواتب.&lt;/font&gt;&lt;/li&gt;&lt;li data-start=&quot;313&quot; data-end=&quot;368&quot;&gt;&lt;font style=&quot;font-size: 20px;&quot;&gt;&lt;strong data-start=&quot;315&quot; data-end=&quot;336&quot;&gt;الإداري (اختياري)&lt;/strong&gt;: لو عايز مدير يراجع التقارير.&lt;/font&gt;&lt;/li&gt;&lt;/ul&gt;&lt;/li&gt;&lt;li data-start=&quot;370&quot; data-end=&quot;690&quot;&gt;&lt;p data-start=&quot;373&quot; data-end=&quot;419&quot;&gt;&lt;font style=&quot;font-size: 20px;&quot;&gt;&lt;strong data-start=&quot;373&quot; data-end=&quot;416&quot;&gt;البيانات الأساسية (Entities &amp;amp; Database)&lt;/strong&gt;:&lt;/font&gt;&lt;/p&gt;&lt;ul data-start=&quot;423&quot; data-end=&quot;690&quot;&gt;&lt;li data-start=&quot;423&quot; data-end=&quot;499&quot;&gt;&lt;font style=&quot;font-size: 20px;&quot;&gt;&lt;strong data-start=&quot;425&quot; data-end=&quot;449&quot;&gt;الموظفون (Employees)&lt;/strong&gt;: يحتفظ بمعلومات الموظف مثل الاسم، الأجر اليومي.&lt;/font&gt;&lt;/li&gt;&lt;li data-start=&quot;503&quot; data-end=&quot;604&quot;&gt;&lt;font style=&quot;font-size: 20px;&quot;&gt;&lt;strong data-start=&quot;505&quot; data-end=&quot;540&quot;&gt;السجلات اليومية (Daily Records)&lt;/strong&gt;: تخزن اليوميات لكل موظف، بما في ذلك المبلغ المستلم في كل يوم.&lt;/font&gt;&lt;/li&gt;&lt;li data-start=&quot;608&quot; data-end=&quot;690&quot;&gt;&lt;font style=&quot;font-size: 20px;&quot;&gt;&lt;strong data-start=&quot;610&quot; data-end=&quot;632&quot;&gt;التقارير (Reports)&lt;/strong&gt;: لحساب المستحقات والفلوس المصروفة لكل موظف ولكل الشركة.&lt;/font&gt;&lt;/li&gt;&lt;/ul&gt;&lt;/li&gt;&lt;li data-start=&quot;692&quot; data-end=&quot;945&quot;&gt;&lt;p data-start=&quot;695&quot; data-end=&quot;945&quot;&gt;&lt;font style=&quot;font-size: 20px;&quot;&gt;&lt;strong data-start=&quot;695&quot; data-end=&quot;726&quot;&gt;الوظائف الأساسية (Features)&lt;/strong&gt;:&lt;br data-start=&quot;727&quot; data-end=&quot;730&quot;&gt;✅ &lt;strong data-start=&quot;735&quot; data-end=&quot;754&quot;&gt;إضافة موظف جديد&lt;/strong&gt; (الاسم، الأجر اليومي).&lt;br data-start=&quot;777&quot; data-end=&quot;780&quot;&gt;✅ &lt;strong data-start=&quot;785&quot; data-end=&quot;807&quot;&gt;تسجيل يومية للموظف&lt;/strong&gt; (المبلغ اللي أخده في يوم معين).&lt;br data-start=&quot;839&quot; data-end=&quot;842&quot;&gt;✅ &lt;strong data-start=&quot;847&quot; data-end=&quot;886&quot;&gt;حساب التقرير النهائي بعد كل أسبوعين&lt;/strong&gt;.&lt;br data-start=&quot;887&quot; data-end=&quot;890&quot;&gt;✅ &lt;strong data-start=&quot;895&quot; data-end=&quot;942&quot;&gt;عرض إجمالي المصاريف والمستحقات لكل الموظفين&lt;/strong&gt;.&lt;/font&gt;&lt;/p&gt;&lt;/li&gt;&lt;/ol&gt;" style="text;whiteSpace=wrap;html=1;" vertex="1" parent="1">
          <mxGeometry width="630" height="450" as="geometry" />
        </mxCell>
        <mxCell id="tFMe2BVRG-rV2HACEoZ4-2" value="📌 2. مخطط قاعدة البيانات (Database Schema - Firestore)&amp;nbsp;&lt;div&gt;&lt;br&gt;&lt;/div&gt;&lt;div&gt;&lt;div&gt;/employees (Collection)&lt;/div&gt;&lt;div&gt;&amp;nbsp; - employeeId (String)&lt;/div&gt;&lt;div&gt;&amp;nbsp; - name (String)&lt;/div&gt;&lt;div&gt;&amp;nbsp; - dailySalary (Number)&lt;/div&gt;&lt;div&gt;&lt;br&gt;&lt;/div&gt;&lt;div&gt;/dailyRecords (Collection)&lt;/div&gt;&lt;div&gt;&amp;nbsp; - recordId (String)&lt;/div&gt;&lt;div&gt;&amp;nbsp; - employeeId (String) 🔗 (Reference to /employees)&lt;/div&gt;&lt;div&gt;&amp;nbsp; - date (Timestamp)&lt;/div&gt;&lt;div&gt;&amp;nbsp; - amountReceived (Number)&lt;/div&gt;&lt;div&gt;&lt;br&gt;&lt;/div&gt;&lt;div&gt;/reports (Collection) [Optional]&lt;/div&gt;&lt;div&gt;&amp;nbsp; - reportId (String)&lt;/div&gt;&lt;div&gt;&amp;nbsp; - startDate (Timestamp)&lt;/div&gt;&lt;div&gt;&amp;nbsp; - endDate (Timestamp)&lt;/div&gt;&lt;div&gt;&amp;nbsp; - totalExpenses (Number)&lt;/div&gt;&lt;div&gt;&amp;nbsp; - totalSalaries (Number)&lt;/div&gt;&lt;div&gt;&amp;nbsp; - employees (Array of {employeeId, totalReceived, totalDue})&lt;/div&gt;&lt;/div&gt;&lt;div&gt;&lt;br&gt;&lt;/div&gt;" style="text;whiteSpace=wrap;html=1;fontSize=20;" vertex="1" parent="1">
          <mxGeometry x="690" y="10" width="570" height="510" as="geometry" />
        </mxCell>
        <mxCell id="tFMe2BVRG-rV2HACEoZ4-3" value="&lt;h2 data-start=&quot;96&quot; data-end=&quot;119&quot;&gt;&lt;strong data-start=&quot;99&quot; data-end=&quot;119&quot;&gt;&lt;font style=&quot;font-size: 20px;&quot;&gt; صفحات النظام:&lt;/font&gt;&lt;/strong&gt;&lt;/h2&gt;&lt;h3 data-start=&quot;120&quot; data-end=&quot;165&quot;&gt;&lt;font style=&quot;font-size: 20px;&quot;&gt;1️⃣ &lt;strong data-start=&quot;128&quot; data-end=&quot;165&quot;&gt;📄 صفحة الموظفين (Employees Page)&lt;/strong&gt;&lt;/font&gt;&lt;/h3&gt;&lt;p data-start=&quot;166&quot; data-end=&quot;183&quot;&gt;&lt;font style=&quot;font-size: 20px;&quot;&gt;✅ &lt;strong data-start=&quot;168&quot; data-end=&quot;181&quot;&gt;المكونات:&lt;/strong&gt;&lt;/font&gt;&lt;/p&gt;&lt;ul data-start=&quot;184&quot; data-end=&quot;301&quot;&gt;&lt;li data-start=&quot;184&quot; data-end=&quot;252&quot;&gt;&lt;font style=&quot;font-size: 20px;&quot;&gt;&lt;strong data-start=&quot;186&quot; data-end=&quot;203&quot;&gt;جدول الموظفين&lt;/strong&gt; (الاسم - الراتب اليومي - عدد الأيام المحسوبة).&lt;/font&gt;&lt;/li&gt;&lt;li data-start=&quot;253&quot; data-end=&quot;301&quot;&gt;&lt;font style=&quot;font-size: 20px;&quot;&gt;&lt;strong data-start=&quot;255&quot; data-end=&quot;274&quot;&gt;زر &quot;إضافة موظف&quot;&lt;/strong&gt; لإدخال بيانات موظف جديد.&lt;/font&gt;&lt;/li&gt;&lt;/ul&gt;&lt;p data-start=&quot;303&quot; data-end=&quot;338&quot;&gt;&lt;font style=&quot;font-size: 20px;&quot;&gt;✅ &lt;strong data-start=&quot;305&quot; data-end=&quot;336&quot;&gt;Relume Components المناسبة:&lt;/strong&gt;&lt;/font&gt;&lt;/p&gt;&lt;ul data-start=&quot;339&quot; data-end=&quot;447&quot;&gt;&lt;li data-start=&quot;339&quot; data-end=&quot;373&quot;&gt;&lt;font style=&quot;font-size: 20px;&quot;&gt;&lt;strong data-start=&quot;341&quot; data-end=&quot;350&quot;&gt;Table&lt;/strong&gt; لعرض قائمة الموظفين.&lt;/font&gt;&lt;/li&gt;&lt;li data-start=&quot;374&quot; data-end=&quot;401&quot;&gt;&lt;font style=&quot;font-size: 20px;&quot;&gt;&lt;strong data-start=&quot;376&quot; data-end=&quot;386&quot;&gt;Button&lt;/strong&gt; لإضافة موظف.&lt;/font&gt;&lt;/li&gt;&lt;li data-start=&quot;402&quot; data-end=&quot;447&quot;&gt;&lt;font style=&quot;font-size: 20px;&quot;&gt;&lt;strong data-start=&quot;404&quot; data-end=&quot;418&quot;&gt;Form Modal&lt;/strong&gt; لإدخال بيانات الموظف الجديد.&lt;/font&gt;&lt;/li&gt;&lt;/ul&gt;&lt;hr data-start=&quot;449&quot; data-end=&quot;452&quot;&gt;&lt;h3 data-start=&quot;454&quot; data-end=&quot;509&quot;&gt;&lt;font style=&quot;font-size: 20px;&quot;&gt;2️⃣ &lt;strong data-start=&quot;462&quot; data-end=&quot;509&quot;&gt;📝 صفحة تسجيل اليوميات (Daily Records Page)&lt;/strong&gt;&lt;/font&gt;&lt;/h3&gt;&lt;p data-start=&quot;510&quot; data-end=&quot;527&quot;&gt;&lt;font style=&quot;font-size: 20px;&quot;&gt;✅ &lt;strong data-start=&quot;512&quot; data-end=&quot;525&quot;&gt;المكونات:&lt;/strong&gt;&lt;/font&gt;&lt;/p&gt;&lt;ul data-start=&quot;528&quot; data-end=&quot;697&quot;&gt;&lt;li data-start=&quot;528&quot; data-end=&quot;564&quot;&gt;&lt;font style=&quot;font-size: 20px;&quot;&gt;&lt;strong data-start=&quot;530&quot; data-end=&quot;561&quot;&gt;قائمة منسدلة لاختيار الموظف&lt;/strong&gt;.&lt;/font&gt;&lt;/li&gt;&lt;li data-start=&quot;565&quot; data-end=&quot;607&quot;&gt;&lt;font style=&quot;font-size: 20px;&quot;&gt;&lt;strong data-start=&quot;567&quot; data-end=&quot;604&quot;&gt;حقل إدخال المبلغ المستلم في اليوم&lt;/strong&gt;.&lt;/font&gt;&lt;/li&gt;&lt;li data-start=&quot;608&quot; data-end=&quot;649&quot;&gt;&lt;font style=&quot;font-size: 20px;&quot;&gt;&lt;strong data-start=&quot;610&quot; data-end=&quot;632&quot;&gt;زر &quot;تسجيل اليومية&quot;&lt;/strong&gt; لحفظ البيانات.&lt;/font&gt;&lt;/li&gt;&lt;li data-start=&quot;650&quot; data-end=&quot;697&quot;&gt;&lt;font style=&quot;font-size: 20px;&quot;&gt;&lt;strong data-start=&quot;652&quot; data-end=&quot;694&quot;&gt;جدول يعرض اليوميات المسجلة لهذا الموظف&lt;/strong&gt;.&lt;/font&gt;&lt;/li&gt;&lt;/ul&gt;&lt;p data-start=&quot;699&quot; data-end=&quot;734&quot;&gt;&lt;font style=&quot;font-size: 20px;&quot;&gt;✅ &lt;strong data-start=&quot;701&quot; data-end=&quot;732&quot;&gt;Relume Components المناسبة:&lt;/strong&gt;&lt;/font&gt;&lt;/p&gt;&lt;ul data-start=&quot;735&quot; data-end=&quot;879&quot;&gt;&lt;li data-start=&quot;735&quot; data-end=&quot;767&quot;&gt;&lt;font style=&quot;font-size: 20px;&quot;&gt;&lt;strong data-start=&quot;737&quot; data-end=&quot;749&quot;&gt;Dropdown&lt;/strong&gt; لاختيار الموظف.&lt;/font&gt;&lt;/li&gt;&lt;li data-start=&quot;768&quot; data-end=&quot;809&quot;&gt;&lt;font style=&quot;font-size: 20px;&quot;&gt;&lt;strong data-start=&quot;770&quot; data-end=&quot;785&quot;&gt;Input Field&lt;/strong&gt; لإدخال المبلغ اليومي.&lt;/font&gt;&lt;/li&gt;&lt;li data-start=&quot;810&quot; data-end=&quot;838&quot;&gt;&lt;font style=&quot;font-size: 20px;&quot;&gt;&lt;strong data-start=&quot;812&quot; data-end=&quot;822&quot;&gt;Button&lt;/strong&gt; لحفظ اليومية.&lt;/font&gt;&lt;/li&gt;&lt;li data-start=&quot;839&quot; data-end=&quot;879&quot;&gt;&lt;font style=&quot;font-size: 20px;&quot;&gt;&lt;strong data-start=&quot;841&quot; data-end=&quot;850&quot;&gt;Table&lt;/strong&gt; لعرض السجلات اليومية للموظف.&lt;/font&gt;&lt;/li&gt;&lt;/ul&gt;&lt;hr data-start=&quot;881&quot; data-end=&quot;884&quot;&gt;&lt;h3 data-start=&quot;886&quot; data-end=&quot;929&quot;&gt;&lt;font style=&quot;font-size: 20px;&quot;&gt;3️⃣ &lt;strong data-start=&quot;894&quot; data-end=&quot;929&quot;&gt;📊 صفحة التقارير (Reports Page)&lt;/strong&gt;&lt;/font&gt;&lt;/h3&gt;&lt;p data-start=&quot;930&quot; data-end=&quot;947&quot;&gt;&lt;font style=&quot;font-size: 20px;&quot;&gt;✅ &lt;strong data-start=&quot;932&quot; data-end=&quot;945&quot;&gt;المكونات:&lt;/strong&gt;&lt;/font&gt;&lt;/p&gt;&lt;ul data-start=&quot;948&quot; data-end=&quot;1063&quot;&gt;&lt;li data-start=&quot;948&quot; data-end=&quot;985&quot;&gt;&lt;font style=&quot;font-size: 20px;&quot;&gt;&lt;strong data-start=&quot;950&quot; data-end=&quot;982&quot;&gt;إجمالي المصاريف لكل الموظفين&lt;/strong&gt;.&lt;/font&gt;&lt;/li&gt;&lt;li data-start=&quot;986&quot; data-end=&quot;1020&quot;&gt;&lt;font style=&quot;font-size: 20px;&quot;&gt;&lt;strong data-start=&quot;988&quot; data-end=&quot;1017&quot;&gt;إجمالي المستحقات المتبقية&lt;/strong&gt;.&lt;/font&gt;&lt;/li&gt;&lt;li data-start=&quot;1021&quot; data-end=&quot;1063&quot;&gt;&lt;font style=&quot;font-size: 20px;&quot;&gt;&lt;strong data-start=&quot;1023&quot; data-end=&quot;1060&quot;&gt;جدول يوضح تفاصيل الرواتب لكل موظف&lt;/strong&gt;.&lt;/font&gt;&lt;/li&gt;&lt;/ul&gt;&lt;p data-start=&quot;1065&quot; data-end=&quot;1100&quot;&gt;&lt;font style=&quot;font-size: 20px;&quot;&gt;✅ &lt;strong data-start=&quot;1067&quot; data-end=&quot;1098&quot;&gt;Relume Components المناسبة:&lt;/strong&gt;&lt;/font&gt;&lt;/p&gt;&lt;ul data-start=&quot;1101&quot; data-end=&quot;1220&quot;&gt;&lt;li data-start=&quot;1101&quot; data-end=&quot;1172&quot;&gt;&lt;font style=&quot;font-size: 20px;&quot;&gt;&lt;strong data-start=&quot;1103&quot; data-end=&quot;1117&quot;&gt;Stat Cards&lt;/strong&gt; لعرض الأرقام الرئيسية (إجمالي المصروفات، المستحقات).&lt;/font&gt;&lt;/li&gt;&lt;li data-start=&quot;1173&quot; data-end=&quot;1220&quot;&gt;&lt;font style=&quot;font-size: 20px;&quot;&gt;&lt;strong data-start=&quot;1175&quot; data-end=&quot;1184&quot;&gt;Table&lt;/strong&gt; لعرض البيانات التفصيلية لكل موظف.&lt;/font&gt;&lt;/li&gt;&lt;/ul&gt;" style="text;whiteSpace=wrap;html=1;" vertex="1" parent="1">
          <mxGeometry x="1930" width="360" height="690" as="geometry" />
        </mxCell>
        <mxCell id="tFMe2BVRG-rV2HACEoZ4-4" value="&lt;h2 data-end=&quot;1538&quot; data-start=&quot;1495&quot;&gt;&lt;strong data-end=&quot;1538&quot; data-start=&quot;1498&quot;&gt;📌 3. مخطط تدفق المستخدم (User Flow)&lt;/strong&gt;&lt;/h2&gt;&lt;p data-end=&quot;1655&quot; data-start=&quot;1539&quot;&gt;📍 &lt;strong data-end=&quot;1561&quot; data-start=&quot;1542&quot;&gt;الصفحة الرئيسية&lt;/strong&gt; ➝ اختيار موظف ➝ تسجيل المبلغ اليومي ➝ الانتقال إلى صفحة التقارير ➝ عرض المستحقات والمصروفات&lt;/p&gt;" style="text;whiteSpace=wrap;html=1;fontSize=20;" vertex="1" parent="1">
          <mxGeometry x="1275" width="615" height="170" as="geometry" />
        </mxCell>
      </root>
    </mxGraphModel>
  </diagram>
</mxfile>
